<svg width="16" height="16" viewBox="0 0 16 16" fill="none" xmlns="http://www.w3.org/2000/svg">
<path d="M5.58422 10.4105L1.81299 14.1817M7.79602 4.42747L6.75542 5.46806C6.67054 5.55294 6.6281 5.59538 6.57975 5.62911C6.53683 5.65904 6.49053 5.68382 6.44182 5.70293C6.38694 5.72445 6.32808 5.73622 6.21037 5.75977L3.76739 6.24836C3.13252 6.37533 2.81509 6.43882 2.66658 6.60619C2.5372 6.752 2.47812 6.94712 2.50489 7.14021C2.53562 7.36185 2.76453 7.59075 3.22234 8.04856L7.94616 12.7724C8.40397 13.2302 8.63288 13.4591 8.85451 13.4898C9.0476 13.5166 9.24272 13.4575 9.38853 13.3281C9.5559 13.1796 9.61939 12.8622 9.74636 12.2273L10.235 9.78435C10.2585 9.66664 10.2703 9.60779 10.2918 9.5529C10.3109 9.50419 10.3357 9.45789 10.3656 9.41498C10.3993 9.36662 10.4418 9.32418 10.5267 9.2393L11.5673 8.19871C11.6215 8.14443 11.6487 8.1173 11.6785 8.09361C11.705 8.07256 11.733 8.05356 11.7624 8.03678C11.7955 8.01788 11.8308 8.00276 11.9013 7.97253L13.5642 7.25986C14.0494 7.05194 14.2919 6.94799 14.4021 6.78C14.4985 6.63309 14.5329 6.45409 14.498 6.28191C14.4581 6.08502 14.2715 5.89841 13.8983 5.52519L10.4695 2.09643C10.0963 1.72321 9.90971 1.53661 9.71281 1.49669C9.54063 1.46179 9.36163 1.49626 9.21472 1.59261C9.04674 1.7028 8.94278 1.94536 8.73486 2.4305L8.02219 4.0934C7.99196 4.16395 7.97684 4.19922 7.95795 4.23229C7.94116 4.26168 7.92216 4.28974 7.90111 4.31624C7.87742 4.34606 7.85029 4.3732 7.79602 4.42747Z" stroke="#B1B9B9" stroke-width="1.5" stroke-linecap="round" stroke-linejoin="round"/>
</svg>
