<svg width="16" height="16" viewBox="0 0 16 16" fill="none" xmlns="http://www.w3.org/2000/svg">
<g clip-path="url(#clip0_622_16432)">
<path d="M3.3335 10.0002C2.71224 10.0002 2.40161 10.0002 2.15658 9.89867C1.82988 9.76334 1.57032 9.50378 1.43499 9.17707C1.3335 8.93205 1.3335 8.62142 1.3335 8.00016V3.46683C1.3335 2.72009 1.3335 2.34672 1.47882 2.06151C1.60665 1.81063 1.81063 1.60665 2.06151 1.47882C2.34672 1.3335 2.72009 1.3335 3.46683 1.3335H8.00016C8.62142 1.3335 8.93205 1.3335 9.17707 1.43499C9.50378 1.57032 9.76334 1.82988 9.89867 2.15658C10.0002 2.40161 10.0002 2.71224 10.0002 3.3335M8.1335 14.6668H12.5335C13.2802 14.6668 13.6536 14.6668 13.9388 14.5215C14.1897 14.3937 14.3937 14.1897 14.5215 13.9388C14.6668 13.6536 14.6668 13.2802 14.6668 12.5335V8.1335C14.6668 7.38676 14.6668 7.01339 14.5215 6.72818C14.3937 6.47729 14.1897 6.27332 13.9388 6.14549C13.6536 6.00016 13.2802 6.00016 12.5335 6.00016H8.1335C7.38676 6.00016 7.01339 6.00016 6.72818 6.14549C6.47729 6.27332 6.27332 6.47729 6.14549 6.72818C6.00016 7.01339 6.00016 7.38676 6.00016 8.1335V12.5335C6.00016 13.2802 6.00016 13.6536 6.14549 13.9388C6.27332 14.1897 6.47729 14.3937 6.72818 14.5215C7.01339 14.6668 7.38676 14.6668 8.1335 14.6668Z" stroke="#B1B9B9" stroke-width="1.5" stroke-linecap="round" stroke-linejoin="round"/>
</g>
<defs>
<clipPath id="clip0_622_16432">
<rect width="16" height="16" fill="white"/>
</clipPath>
</defs>
</svg>
