<svg width="16" height="16" viewBox="0 0 16 16" fill="none" xmlns="http://www.w3.org/2000/svg">
<path d="M8.00025 10.0002L8.00025 14.6668M5.33358 4.87225V6.29266C5.33358 6.43134 5.33358 6.50068 5.31997 6.567C5.30789 6.62585 5.28792 6.68279 5.26059 6.73628C5.22979 6.79657 5.18647 6.85072 5.09984 6.959L4.05332 8.26715C3.60949 8.82194 3.38758 9.09933 3.38733 9.33278C3.38711 9.5358 3.47942 9.72787 3.63809 9.85452C3.82055 10.0002 4.17578 10.0002 4.88625 10.0002H11.1142C11.8247 10.0002 12.1799 10.0002 12.3624 9.85452C12.5211 9.72787 12.6134 9.5358 12.6132 9.33278C12.6129 9.09933 12.391 8.82194 11.9472 8.26715L10.9007 6.959C10.814 6.85071 10.7707 6.79657 10.7399 6.73628C10.7126 6.68279 10.6926 6.62585 10.6805 6.567C10.6669 6.50068 10.6669 6.43134 10.6669 6.29266V4.87225C10.6669 4.7955 10.6669 4.75713 10.6713 4.71928C10.6751 4.68566 10.6815 4.65239 10.6904 4.61974C10.7004 4.58299 10.7147 4.54736 10.7432 4.4761L11.4151 2.79631C11.6111 2.30625 11.7092 2.06123 11.6683 1.86453C11.6325 1.69252 11.5303 1.54157 11.3839 1.4445C11.2165 1.3335 10.9526 1.3335 10.4247 1.3335H5.57575C5.04794 1.3335 4.78403 1.3335 4.61658 1.4445C4.47015 1.54157 4.36796 1.69252 4.33221 1.86453C4.29134 2.06123 4.38935 2.30625 4.58537 2.79631L5.25729 4.4761C5.28579 4.54736 5.30004 4.58299 5.31007 4.61974C5.31898 4.65239 5.32539 4.68566 5.32924 4.71928C5.33358 4.75713 5.33358 4.7955 5.33358 4.87225Z" stroke="#B1B9B9" stroke-width="1.33333" stroke-linecap="round" stroke-linejoin="round"/>
</svg>
